# xmcd CD Database Entry
#
# Track frame offsets:
# 150
# 21450
# 35850
# 50175
# 70275
# 92175
# 111075
# 123975
# 140625
# 156450
# 177225
# 194250
# 215925
#
# Disc length: 3126 seconds
#
# Revision: 3
# Processed by: cddbd v1.4PL0 Copyright (c) Steve Scherf et al.
# Submitted via: tcd 2.0b
#
DISCID=d50c340d
DTITLE=UK Praise Songs/Top 25
DYEAR=1900
DGENRE=
TTITLE0=Celebrate
TTITLE1=Give Thanks
TTITLE2=Jesus Is The Name We Honour
TTITLE3=Refiner's Fire
TTITLE4=I Will Offer Up My Life
TTITLE5=Majesty
TTITLE6=To Be In Your Presence
TTITLE7=How Deep The Father's Love For Us
TTITLE8=Only By Grace
TTITLE9=You Laid Aside Your Majesty
TTITLE10=Faithful One
TTITLE11=The Power Of Your Love
TTITLE12=Great Is The Lord
EXTD=
EXTT0=
EXTT1=
EXTT2=
EXTT3=
EXTT4=
EXTT5=
EXTT6=
EXTT7=
EXTT8=
EXTT9=
EXTT10=
EXTT11=
EXTT12=
PLAYORDER=
